<svg width="48" height="20" viewBox="0 0 48 20" fill="none" xmlns="http://www.w3.org/2000/svg">
<g clip-path="url(#clip0_6_142)">
<path fill-rule="evenodd" clip-rule="evenodd" d="M9.13589 7.42216C9.12978 6.83844 9.06188 0.344468 9.16179 0.12569C9.21933 -0.000396729 10.8761 0.0110741 10.9326 0.121435C11.0103 0.273423 10.9478 3.64363 10.9723 6.23363C11.0278 12.0892 10.9744 18.6616 10.9656 19.7423C10.9642 19.9086 10.9377 20.0017 10.7373 20.0031C9.3567 20.0127 9.13811 20.0512 9.12812 19.7424C9.03246 16.7997 9.13089 13.2743 9.14652 12.7121C9.1604 12.2164 8.91378 12.822 4.83747 17.167C3.91777 18.1474 3.75042 18.6365 3.42064 18.2676C2.60306 17.353 2.21583 17.18 2.54432 16.8175C2.82573 16.5071 5.57142 13.4778 6.07872 12.9528C6.21388 12.8128 7.69435 11.2804 7.69694 11.137C7.69879 11.0324 7.63191 11.0437 3.24478 11.0444C0.208155 11.0448 0.103253 11.0843 0.0631975 10.8667C0.0549644 10.822 0.0511716 9.24593 0.0611624 9.18783C0.0958524 8.9858 0.19761 9.01632 4.35486 9.01632C7.64033 9.01632 7.72275 9.03742 7.71295 8.91596C7.71054 8.88571 5.40352 6.34205 4.66781 5.55583C4.4853 5.36074 2.73183 3.48674 2.42896 3.07795C2.31509 2.9243 2.41093 2.89553 3.452 1.72115C3.65866 1.48804 3.74043 1.67767 5.24089 3.30487C8.1111 6.41735 8.64125 7.05703 8.9222 7.39607C8.9332 7.4093 8.93774 7.39792 9.13589 7.42216Z" fill="#2E2C29"/>
</g>
<path d="M42.9112 7.1339C43.5317 7.1339 44.0977 7.24318 44.6093 7.46176C45.1318 7.6694 45.5781 7.96448 45.9482 8.34698C46.3291 8.71856 46.623 9.16663 46.8299 9.69121C47.0476 10.2158 47.1564 10.7895 47.1564 11.4125C47.1564 12.0354 47.0476 12.6092 46.8299 13.1337C46.623 13.6583 46.3291 14.1119 45.9482 14.4944C45.5781 14.8659 45.1318 15.161 44.6093 15.3796C44.0977 15.5872 43.5317 15.6911 42.9112 15.6911C42.2908 15.6911 41.7193 15.5872 41.1968 15.3796C40.6852 15.161 40.2389 14.8659 39.8579 14.4944C39.4878 14.1119 39.1939 13.6583 38.9762 13.1337C38.7694 12.6092 38.666 12.0354 38.666 11.4125C38.666 10.7895 38.7694 10.2158 38.9762 9.69121C39.1939 9.16663 39.4878 8.71856 39.8579 8.34698C40.2389 7.96448 40.6852 7.6694 41.1968 7.46176C41.7193 7.24318 42.2908 7.1339 42.9112 7.1339ZM42.9112 13.7075C43.1833 13.7075 43.4446 13.6583 43.6949 13.56C43.9562 13.4507 44.1848 13.2977 44.3807 13.101C44.5766 12.9042 44.729 12.6638 44.8379 12.3797C44.9576 12.0955 45.0175 11.7731 45.0175 11.4125C45.0175 11.0518 44.9576 10.7294 44.8379 10.4453C44.729 10.1611 44.5766 9.92071 44.3807 9.72399C44.1848 9.52728 43.9562 9.37974 43.6949 9.28138C43.4446 9.1721 43.1833 9.11745 42.9112 9.11745C42.6282 9.11745 42.3615 9.1721 42.1112 9.28138C41.8608 9.37974 41.6377 9.52728 41.4417 9.72399C41.2458 9.92071 41.088 10.1611 40.9682 10.4453C40.8594 10.7294 40.8049 11.0518 40.8049 11.4125C40.8049 11.7731 40.8594 12.0955 40.9682 12.3797C41.088 12.6638 41.2458 12.9042 41.4417 13.101C41.6377 13.2977 41.8608 13.4507 42.1112 13.56C42.3615 13.6583 42.6282 13.7075 42.9112 13.7075Z" fill="#2E2C29"/>
<path d="M35.2305 15.4289V3.69151H37.3694V15.4289H35.2305Z" fill="#2E2C29"/>
<path d="M33.7354 13.4944C33.3653 14.1501 32.8646 14.6802 32.2332 15.0845C31.6128 15.4889 30.8508 15.6911 29.9473 15.6911C29.3378 15.6911 28.7718 15.5872 28.2493 15.3796C27.7377 15.161 27.2914 14.8605 26.9104 14.478C26.5294 14.0955 26.2301 13.6474 26.0124 13.1337C25.8056 12.6092 25.7021 12.0354 25.7021 11.4125C25.7021 10.8333 25.8056 10.2868 26.0124 9.77317C26.2192 9.2486 26.5076 8.79506 26.8777 8.41255C27.2478 8.01912 27.6832 7.70765 28.184 7.47815C28.6956 7.24865 29.2561 7.1339 29.8657 7.1339C30.5079 7.1339 31.0794 7.24318 31.5801 7.46176C32.0808 7.6694 32.4999 7.96448 32.8373 8.34698C33.1748 8.71856 33.4306 9.16117 33.6047 9.67482C33.7789 10.1885 33.866 10.7458 33.866 11.3469C33.866 11.4234 33.866 11.489 33.866 11.5436C33.8551 11.6092 33.8497 11.6693 33.8497 11.7239C33.8388 11.7786 33.8333 11.8387 33.8333 11.9043H27.8084C27.852 12.2321 27.939 12.5163 28.0697 12.7567C28.2112 12.9862 28.3799 13.1829 28.5758 13.3469C28.7826 13.4999 29.0058 13.6146 29.2453 13.6911C29.4847 13.7567 29.7296 13.7895 29.98 13.7895C30.4698 13.7895 30.8726 13.6802 31.1883 13.4616C31.5148 13.2321 31.7706 12.948 31.9557 12.6092L33.7354 13.4944ZM31.7924 10.3797C31.7815 10.2376 31.7325 10.0792 31.6454 9.90432C31.5692 9.72946 31.4495 9.56553 31.2862 9.41253C31.1338 9.25953 30.9379 9.13385 30.6984 9.03549C30.4698 8.93713 30.1923 8.88795 29.8657 8.88795C29.4085 8.88795 29.0058 9.01909 28.6575 9.28138C28.3091 9.54367 28.0642 9.90978 27.9227 10.3797H31.7924Z" fill="#2E2C29"/>
<path d="M15 3.99913H17.4482L19.9299 11.2226L20.3659 12.7645H20.5L20.9695 11.2226L23.5518 3.99913H26L21.6235 15.9991H19.2424L15 3.99913Z" fill="#2E2C29"/>
<defs>
<clipPath id="clip0_6_142">
<rect width="11" height="20" fill="white"/>
</clipPath>
</defs>
</svg>
