<svg width="24" height="24" viewBox="0 0 24 24" fill="none" xmlns="http://www.w3.org/2000/svg">
<rect width="6" height="6" transform="matrix(-1 0 0 1 24 0)" fill="#487FE9"/>
<rect width="6" height="6" transform="matrix(-1 0 0 1 18 0)" fill="#487FE9"/>
<rect width="6" height="6" transform="matrix(-1 0 0 1 12 0)" fill="#487FE9"/>
<rect width="6" height="6" transform="matrix(-1 0 0 1 24 6)" fill="#487FE9"/>
<rect width="6" height="6" transform="matrix(-1 0 0 1 18 6)" fill="#487FE9"/>
<rect opacity="0.3" width="6" height="6" transform="matrix(-1 0 0 1 12 6)" fill="#487FE9"/>
<rect width="6" height="6" transform="matrix(-1 0 0 1 24 12)" fill="#487FE9"/>
<rect opacity="0.3" width="6" height="6" transform="matrix(-1 0 0 1 18 12)" fill="#487FE9"/>
<rect opacity="0.15" width="6" height="6" transform="matrix(-1 0 0 1 12 12)" fill="#487FE9"/>
<rect opacity="0.3" width="6" height="6" transform="matrix(-1 0 0 1 24 18)" fill="#487FE9"/>
<rect opacity="0.3" width="6" height="6" transform="matrix(-1 0 0 1 6 0)" fill="#487FE9"/>
</svg>
